<?xml version="1.0" encoding="utf-8"?>
<!-- Generator: Adobe Illustrator 16.0.0, SVG Export Plug-In . SVG Version: 6.00 Build 0)  -->
<!DOCTYPE svg PUBLIC "-//W3C//DTD SVG 1.1//EN" "http://www.w3.org/Graphics/SVG/1.1/DTD/svg11.dtd">
<svg version="1.1" id="Layer_1" xmlns="http://www.w3.org/2000/svg" xmlns:xlink="http://www.w3.org/1999/xlink" x="0px" y="0px"
	 width="1000px" height="1000px" viewBox="0 0 1000 1000" enable-background="new 0 0 1000 1000" xml:space="preserve">
<g>
	<g>
		<g>
			<path fill="#FFFFFF" d="M45.022,394.031c4.756,1.633,9.442,3.441,14.078,5.389c-2.986-1.26-5.972-2.521-8.958-3.781
				c41.901,17.868,79.478,45.383,115.339,73.071c-2.53-1.955-5.06-3.909-7.59-5.863c39.406,30.499,77.696,62.556,116.268,94.1
				c19.402,15.868,37.989,32.659,55.732,50.36c15.916,15.878,31.185,32.391,47.055,48.312
				c16.835,16.892,34.403,32.955,53.345,47.457c9.746,7.461,19.744,12.059,32.291,12.941c8.146,0.573,16.918-1.769,24.909-3.557
				c17.933-4.014,35.55-9.606,53.074-15.092c15.659-4.901,31.63-9.454,46.896-15.49c53.292-21.07,103.552-48.882,156.269-71.248
				c-2.986,1.26-5.973,2.521-8.958,3.78c33.746-14.228,67.894-27.51,101.643-41.756c-2.985,1.26-5.972,2.521-8.958,3.78
				c33.352-14.068,67.145-25.271,102.148-34.536c22.791-6.032,35.426-34.667,22.411-55.087
				c-33.059-51.87-74.971-97.587-119.088-140.183c-18.025-17.404-36.924-33.898-54.808-51.44
				c-14.061-13.792-27.606-28.108-41.261-42.299c-31.429-32.666-63.091-65-99.199-92.555
				c-14.357-10.957-30.305-20.706-47.803-25.718c-12.232-3.503-23.022-2.956-35.34-0.948c-12.721,2.073-25.366,4.602-37.955,7.363
				c-44.678,9.801-88.618,22.92-132.075,37.115c-44.726,14.609-89.365,30.024-132.698,48.356c2.986-1.26,5.972-2.521,8.958-3.78
				c-23.008,9.665-46.456,18.212-69.972,26.548c-11.736,4.16-23.49,8.268-35.221,12.441c-13.676,4.866-27.765,9.378-40.917,15.542
				c-14.241,6.674-27.247,16.338-40.204,25.149c-11.319,7.698-22.78,16.804-35.472,22.162c2.986-1.26,5.972-2.521,8.958-3.78
				c-0.949,0.376-1.897,0.709-2.896,0.924c-19.989,4.297-31.375,27.284-26.192,46.13c5.648,20.531,26.164,30.483,46.129,26.191
				c7.8-1.677,15.68-6.291,22.532-10.465c7.35-4.477,14.449-9.37,21.565-14.205c14.283-9.706,28.523-20.358,44.217-27.713
				c-2.986,1.26-5.972,2.52-8.958,3.78c52.45-19.796,105.906-36.603,157.235-59.316c-2.986,1.26-5.972,2.52-8.958,3.78
				c46.189-17.256,92.702-33.685,139.785-48.347c47.071-14.658,95.257-28.617,144.117-35.88c-3.323,0.446-6.646,0.893-9.969,1.339
				c2.455-0.303,4.89-0.255,7.345,0.032c-3.323-0.447-6.646-0.893-9.969-1.34c4.559,0.619,8.923,2.007,13.169,3.75
				c-2.985-1.26-5.972-2.52-8.958-3.78c12.125,5.125,23.062,12.784,33.448,20.773c-2.53-1.955-5.06-3.909-7.59-5.864
				c33.661,26.092,63.091,57.517,92.539,88.138c13.461,13.996,26.846,28.082,40.754,41.638c18.465,17.996,37.888,35.001,56.4,52.96
				c29.219,28.346,57.247,58.035,82.196,90.243c-1.954-2.53-3.909-5.06-5.863-7.59c9.633,12.512,18.77,25.384,27.258,38.702
				c7.47-18.362,14.94-36.725,22.411-55.087c-21.684,5.739-43.297,11.824-64.403,19.448c-20.57,7.43-40.606,16.303-60.745,24.802
				c2.985-1.261,5.972-2.521,8.958-3.78c-37.604,15.86-75.905,30.068-113.015,47.082c-37.23,17.07-73.656,35.928-111.388,51.897
				c2.986-1.26,5.972-2.521,8.958-3.78c-19.765,8.312-40.327,14.481-60.785,20.856c-19.474,6.068-39.527,13.159-59.812,15.947
				c3.323-0.446,6.646-0.893,9.969-1.339c-1.82,0.23-3.672,0.442-5.505,0.244c3.323,0.447,6.646,0.894,9.969,1.34
				c-0.367-0.056-0.712-0.129-1.062-0.252c2.986,1.26,5.972,2.52,8.958,3.78c-4.236-1.794-7.992-4.733-11.618-7.509
				c2.53,1.954,5.06,3.908,7.59,5.863c-34.416-26.706-63.023-60.188-93.749-90.842c-34.918-34.836-74.118-64.729-112.109-96.058
				c-32.881-27.114-66.002-54.053-100.75-78.762c-32.279-22.954-66.526-43.88-104.168-56.809
				c-19.341-6.643-40.964,7.413-46.129,26.191C13.154,368.538,25.708,387.398,45.022,394.031L45.022,394.031z"/>
		</g>
	</g>
	<g>
		<g>
			<path fill="#FFFFFF" d="M18.83,367.84c6.92,29.369,12.607,58.999,18.88,88.508c2.322,10.924,4.721,21.853,7.757,32.605
				c2.538,8.987,5.428,19.051,10.849,26.666c7.165,10.062,16.578,17.502,25.937,25.428c9.436,7.991,18.989,15.844,28.525,23.715
				c18.435,15.217,37.06,30.316,54.467,46.717c10.388,9.788,19.73,20.806,29.778,30.963c9.792,9.897,19.758,19.622,29.586,29.484
				c15.888,15.941,30.821,32.665,47.5,47.799c32.305,29.312,66.62,56.538,101.575,82.602c27.269,20.332,55.886,42.382,88.221,54.022
				c17.338,6.241,35.713,0.333,52.594-4.594c20.349-5.938,40.3-13.243,60.114-20.744c42.588-16.122,84.472-34.021,126.901-50.544
				c41.814-16.283,84.927-28.893,127.381-43.351c26.545-9.039,52.819-18.838,78.78-29.44c13.358-5.455,27.426-10.355,39.718-18.062
				c9.606-6.022,20.396-14.928,24.998-25.67c4.332-10.113,5.459-13.828,6.543-25.09c0.578-6.018-0.907-12.978-1.736-18.665
				c-1.228-8.415-3.496-16.665-5.375-24.947c-1.271-5.602-2.287-11.25-3.481-16.865c-5.97-28.057-43.07-37.585-62.98-17.676
				c-13.677,13.677-11.2,27.071-8.776,43.216c0.244,1.621,0.495,3.241,0.76,4.858c1.739,10.627,9.385,17.964,17.573,24.281
				c7.489,5.778,20.237,6.162,28.896,3.78c13.427-3.693,21.564-13.614,26.192-26.191c2.774-7.542,0.614-15.84-0.435-23.342
				c-0.662-4.729-1.365-9.451-2.065-14.174c-3.822-25.799-7.771-51.579-11.712-77.359c-1.388-9.077-9.661-17.976-17.233-22.412
				c-8.66-5.073-19.217-6.442-28.896-3.78c-9.374,2.579-17.501,8.851-22.411,17.234c-5.547,9.468-5.375,18.466-3.78,28.896
				c4.752,31.084,9.822,62.151,14.022,93.317c-0.447-3.322-0.894-6.646-1.34-9.969c0.068,0.513,0.222,1.094,0.19,1.614
				c0.447-3.322,0.894-6.646,1.34-9.969c-0.001,0.002-0.001,0.004-0.002,0.006c18.362-7.471,36.725-14.941,55.088-22.411
				c-0.002-0.001-0.003-0.002-0.004-0.003c4.484,4.484,8.969,8.969,13.453,13.453c-0.001-0.003-0.003-0.007-0.004-0.01
				c1.26,2.985,2.521,5.972,3.78,8.958c-1.052-3.439-1.225-7.419-1.705-10.974c0.446,3.322,0.894,6.646,1.34,9.969
				c-0.104-0.774-0.331-1.658-0.263-2.444c-0.446,3.323-0.894,6.646-1.34,9.969c0.001-0.006,0.002-0.012,0.004-0.018
				c-1.261,2.986-2.521,5.972-3.78,8.958c0.001-0.003,0.003-0.007,0.005-0.011c-4.485,4.484-8.97,8.969-13.454,13.454
				c0.003-0.001,0.005-0.002,0.007-0.003c-12.618,0-25.236,0-37.854,0c0.003,0.002,0.005,0.004,0.008,0.005
				c-4.484-4.484-8.969-8.969-13.453-13.453c0.008,0.011,0.014,0.022,0.019,0.035c-1.26-2.986-2.52-5.973-3.78-8.958
				c1.041,2.666,1.241,6.08,1.787,8.802c2.278,11.384,5.664,22.604,7.34,34.101c-0.446-3.323-0.894-6.646-1.34-9.969
				c0.445,3.328,0.667,6.652,0.255,9.996c0.446-3.323,0.893-6.646,1.339-9.969c-0.254,1.678-0.665,3.28-1.28,4.862
				c1.26-2.985,2.521-5.972,3.78-8.958c-0.684,1.596-1.536,3.052-2.567,4.446c1.955-2.529,3.909-5.06,5.863-7.589
				c-1.556,1.973-3.354,3.658-5.322,5.215c2.529-1.954,5.06-3.909,7.59-5.863c-6.585,4.99-14.242,8.401-21.808,11.607
				c2.985-1.261,5.972-2.521,8.958-3.78c-49.34,20.7-99.882,37.614-150.712,54.192c-40.563,13.23-80.09,28.459-119.616,44.487
				c-28.866,11.706-57.738,23.421-86.955,34.232c-23.55,8.715-47.993,18.249-72.857,22.485c3.323-0.446,6.646-0.893,9.969-1.339
				c-0.946,0.119-1.878,0.068-2.822-0.052c3.323,0.446,6.646,0.893,9.969,1.34c-3.143-0.475-6.146-1.623-9.062-2.853
				c2.986,1.261,5.972,2.521,8.958,3.78c-14.318-6.165-27.549-15.052-40.436-23.723c-18.258-12.286-35.945-25.425-53.367-38.861
				c2.53,1.954,5.06,3.909,7.589,5.863c-30.879-23.86-61.355-48.639-89.506-75.703c-9.235-8.879-17.665-18.597-26.621-27.761
				c-9.771-9.997-19.766-19.773-29.669-29.639c-10.527-10.486-20.894-21.128-30.965-32.053c-7.536-8.176-16.1-15.435-24.502-22.7
				c-14.909-12.891-30.192-25.346-45.382-37.902c-7.437-6.147-14.856-12.314-22.204-18.568c-5.492-4.673-11.997-9.263-16.646-14.797
				c1.955,2.53,3.909,5.06,5.864,7.589c-1.37-1.778-2.337-3.795-3.226-5.846c1.26,2.986,2.521,5.972,3.78,8.958
				c-6.917-16.609-9.881-35.15-13.541-52.666c-5.625-26.924-10.924-53.914-17.233-80.69c-4.688-19.894-26.988-31.457-46.129-26.191
				C24.779,327.278,14.146,347.96,18.83,367.84L18.83,367.84z"/>
		</g>
	</g>
	<g>
		<g>
			<path fill="#FFFFFF" d="M510.436,809.195c-2.583-13.651-5.325-27.301-7.192-41.073c0.446,3.322,0.894,6.646,1.34,9.969
				c-4.344-33.126-5.343-66.526-6.247-99.886c-0.554-20.43-16.639-37.5-37.5-37.5c-20.023,0-38.054,17.059-37.5,37.5
				c0.742,27.372,1.518,54.76,4.206,82.023c2.287,23.193,6.244,46.025,10.572,68.904c3.803,20.1,27.656,31.273,46.129,26.191
				c9.374-2.578,17.501-8.851,22.411-17.233C512.062,828.862,512.37,819.416,510.436,809.195L510.436,809.195z"/>
		</g>
	</g>
</g>
<g>
	<g>
		<path fill="#FFFFFF" d="M837.952,486.186c-9.341-23.836-10.969-52.864-31.064-71.138c-10.11-9.194-24.145-17.383-38.376-15.53
			c-13.11,1.707-23.979,7.925-32.34,18.22c-12.771,15.728-20.396,34.686-27.354,53.524c-1.337,3.617-2.7,7.224-4.111,10.812
			c-0.775,1.973-1.577,3.935-2.39,5.893c2.699-6.501-0.795,1.727-1.52,3.316c-3.831,8.406-8.23,16.603-13.681,24.077
			c-2.351,3.224,3.049-3.813,0.562-0.762c-0.642,0.787-1.316,1.545-1.993,2.301c-1.303,1.456-2.711,2.812-4.165,4.114
			c-1.099,0.984-4.056,3.082,1.138-0.794c-0.725,0.542-1.488,1.027-2.253,1.511c-0.746,0.473-1.529,0.883-2.313,1.289
			c-2.949,1.532,5.388-1.914,0.787-0.401c-0.81,0.266-1.645,0.445-2.477,0.624c-3.503,0.749,5.515-0.532,1.92-0.315
			c-0.873,0.052-1.749,0.003-2.62-0.045c-3.647-0.202,5.267,1.029,2.278,0.191c-2.947-0.826,5.146,2.393,2.398,1.042
			c-0.584-0.287-1.128-0.649-1.669-1.009c6.042,4.008,1.655,1.265,0.059-0.632c4.78,5.68,1.175,1.394,0.157-0.386
			c-0.895-1.564-3.315-7.427-0.504-0.569c-1.568-3.823-2.66-7.838-3.603-11.854c-0.476-2.022-0.867-4.062-1.239-6.105
			c-0.304-1.664-1.401-9.376-0.432-2.145c-0.639-4.762-1.058-9.551-1.386-14.343c-1.032-15.086-0.916-30.31,0.053-45.397
			c1.523-23.734,6.166-46.858,4.114-70.772c-2.422-28.223-12.912-52.89-31.089-74.578c-12.645-15.086-34.621-35.722-56.426-26.962
			c-18.51,7.436-26.151,25.507-30.582,43.778c-3.646,15.037-5.047,30.481-7.778,45.685c-4.198,23.365-7.763,46.726-13.692,69.751
			c-3.162,12.282-6.942,24.408-11.503,36.245c-0.537,1.395-1.1,2.779-1.661,4.164c-1.92,4.727,1.727-3.969-0.304,0.685
			c-1.173,2.688-2.427,5.34-3.712,7.976c-2.715,5.568-5.761,10.969-9.067,16.207c-1.484,2.351-3.069,4.636-4.691,6.894
			c-0.613,0.853-3.563,4.602-0.188,0.313c-0.839,1.066-1.714,2.104-2.589,3.14c-2.057,2.435-4.23,4.781-6.435,7.081
			c-1.179,1.23-2.423,2.394-3.67,3.554c-0.778,0.724-6.244,4.94-1.877,1.711c-2.129,1.574-4.42,2.907-6.779,4.101
			c-3.883,1.965,4.391-1.62,0.465-0.26c-1.02,0.353-2.072,0.593-3.123,0.828c-3.897,0.873,5.181-0.45,1.307-0.233
			c-0.964,0.054-1.93-0.016-2.891-0.087c6.271,0.465,3.368,0.473,1.624,0.029c-4.849-1.234,3.392,1.76,0.424,0.294
			c-0.859-0.424-1.665-0.948-2.468-1.468c-3.177-2.056,3.847,3.216,0.93,0.693c-1.277-1.104-5.902-6.689-1.842-1.424
			c-1.406-1.824-2.606-3.802-3.75-5.796c-0.607-1.058-1.15-2.151-1.694-3.241c-0.367-0.754-0.72-1.513-1.061-2.278
			c1.164,2.819,1.34,3.219,0.53,1.196c-2.051-5.175-3.485-10.585-4.659-16.018c-0.312-1.444-0.572-2.899-0.833-4.354
			c-0.176-0.984-0.908-6.087-0.183-0.656c-0.593-4.447-0.781-8.972-1.102-13.446c-2.352-32.794-3.133-65.677-5.365-98.479
			c-1.507-22.148-1.306-44.618-4.769-66.574c-1.658-10.514-5.136-21.272-10.981-30.217c-7.386-11.304-17.713-18.452-30.304-22.922
			c-19.42-6.895-39.541,0.02-54.073,13.534c-12.776,11.88-21.187,28.395-28.253,44.09c-4.057,9.01-7.774,18.173-11.524,27.314
			c-0.73,1.78-1.463,3.558-2.2,5.335c-0.358,0.863-0.719,1.724-1.081,2.585c2.577-6.14,1.171-2.778,0.593-1.431
			c-1.43,3.333-2.923,6.639-4.522,9.895c-1.249,2.542-2.601,5.033-4.101,7.436c-0.756,1.211-1.603,2.36-2.425,3.527
			c-2.582,3.666,2.884-3.565,0.043,0c-1.088,1.367-2.245,2.678-3.408,3.981c-3.615,4.049-7.643,7.716-11.869,11.116
			c4.212-3.389,0.507-0.453-0.355,0.163c-1.116,0.797-2.267,1.542-3.417,2.288c-2.657,1.721-5.443,3.23-8.279,4.63
			c-1.034,0.511-5.344,2.238-0.097,0.118c-1.215,0.491-2.458,0.909-3.701,1.324c-2.436,0.814-4.941,1.389-7.463,1.86
			c6.376-1.191-1.531-0.019-3.377-0.031c-1.232-0.008-2.459-0.128-3.684-0.25c6.342,0.629,0.776-0.087-0.719-0.492
			c-1.199-0.324-5.231-1.972,0.076,0.293c-1.184-0.505-2.31-1.135-3.432-1.761c-1.162-0.649-2.251-1.418-3.337-2.184
			c4.347,3.064,0.613,0.312-0.231-0.472c-1.09-1.012-2.078-2.128-3.065-3.238c-3.357-3.774,2.412,3.44-0.524-0.617
			c-2.003-2.768-3.685-5.761-5.268-8.783c-1.131-2.16-2.125-4.39-3.099-6.624c2.125,4.875,0.162,0.25-0.192-0.652
			c-0.534-1.365-1.042-2.74-1.553-4.114c-2.024-5.447-3.924-10.938-6.081-16.335c-4.959-12.408-10.925-24.184-20.77-33.505
			c-7.911-7.49-20.421-7.863-28.284,0c-7.548,7.548-7.916,20.79,0,28.284c1.026,0.972,2.012,1.964,2.977,2.997
			c0.734,0.786,3.554,4.563,0.37,0.277c1.659,2.233,3.065,4.649,4.405,7.083c1.362,2.472,2.524,5.052,3.65,7.638
			c-2.165-4.969-0.23-0.408,0.138,0.534c0.703,1.798,1.365,3.613,2.03,5.426c4.604,12.556,8.926,25.498,16.305,36.753
			c8.524,13.002,20.283,22.963,35.251,27.571c12.486,3.844,26.849,2.399,38.981-1.943c22.76-8.146,43.061-25.14,55.623-45.781
			c8.361-13.737,13.46-29.575,19.649-44.354c-2.765,6.601,0.167-0.362,0.824-1.874c0.828-1.906,1.677-3.803,2.536-5.695
			c1.847-4.069,3.801-8.089,5.865-12.053c1.843-3.538,3.827-7,5.938-10.385c1.014-1.625,2.086-3.214,3.183-4.785
			c0.535-0.766,1.092-1.517,1.65-2.267c-4.07,5.474-1.281,1.671-0.287,0.48c2.214-2.652,4.665-5.097,7.309-7.319
			c2.649-2.227-4.225,3.141-1.446,1.134c0.651-0.47,1.33-0.902,2.008-1.332c1.726-1.094,7.997-3.674,0.828-0.795
			c1.442-0.579,2.943-0.992,4.454-1.342c1.596-0.369,4.916-0.642-2.223,0.215c0.792-0.095,1.591-0.125,2.388-0.155
			c1.967-0.074,8.1,0.832,0.488-0.305c2.093,0.312,4.138,0.898,6.144,1.56c1.358,0.448,4.771,1.952-1.109-0.575
			c1.041,0.447,2.044,0.949,3.045,1.478c0.968,0.512,1.881,1.12,2.791,1.727c3.349,2.234-3.696-3.103-0.703-0.465
			c1.355,1.194,5.729,6.89,1.768,1.5c1.49,2.029,2.695,4.256,3.801,6.511c1.812,3.693-1.792-4.571-0.279-0.699
			c0.411,1.053,0.763,2.128,1.116,3.202c0.723,2.199,1.281,4.45,1.801,6.704c0.534,2.314,0.934,4.658,1.303,7.002
			c0.688,4.364-0.605-4.945-0.077-0.543c0.192,1.602,0.34,3.209,0.484,4.816c0.858,9.566,0.893,19.184,1.248,28.776
			c0.512,13.829,1.944,27.638,2.706,41.459c1.839,33.387,1.601,67.372,6.392,100.501c3.195,22.095,13.347,50.546,35.414,60.358
			c28.385,12.623,53.999-6.48,71.155-28.283c16.671-21.188,27.476-45.795,35.542-71.399c12.498-39.672,16.799-80.912,24.127-121.657
			c1.388-7.719,3.087-15.416,5.667-22.832c0.28-0.803,0.585-1.598,0.892-2.391c1.26-3.262-2.144,4.897-0.741,1.764
			c0.628-1.402,1.347-2.761,2.111-4.093c0.979-1.707,4.507-5.96-0.335,0.021c1.396-1.725,5.875-4.897-0.377-0.322
			c0.481-0.352,1-0.646,1.519-0.938c2.564-1.441-5.396,2.067-2.624,1.096c4.699-1.646-5.252,0.149-1.177,0.082
			c4.063-0.066-5.98-1.455-0.672,0.014c1.487,0.412,4.442,1.77-1.883-0.937c1.063,0.455,2.075,1.022,3.079,1.593
			c1.431,0.813,6.979,5.076,1.802,0.972c1.932,1.531,3.733,3.221,5.506,4.93c2.232,2.153,4.359,4.432,6.468,6.706
			c1.127,1.215,2.209,2.472,3.29,3.729c0.602,0.7,4.884,6.247,1.827,2.185c3.569,4.744,6.666,9.827,9.396,15.093
			c0.65,1.253,1.246,2.533,1.842,3.812c2.048,4.4-1.635-4.136,0.147,0.333c1.177,2.952,2.148,5.982,3.037,9.031
			c0.754,2.584,1.355,5.21,1.909,7.843c0.324,1.542,1.599,10.336,0.787,3.968c0.747,5.864,0.997,11.786,1.04,17.692
			c0.156,21.315-4.101,42.227-5.071,63.442c-0.764,16.691-0.569,33.515,1.276,50.131c2.094,18.837,5.422,40.761,19.649,54.686
			c17.898,17.517,44.395,9.74,60.212-6.194c14.653-14.763,23.138-34.919,30.669-53.923c2.643-6.668,5.013-13.437,7.575-20.134
			c0.519-1.356,1.653-3.939-0.915,2.063c0.455-1.063,0.914-2.125,1.375-3.185c0.956-2.201,1.94-4.389,2.943-6.568
			c2.226-4.835,4.65-9.575,7.354-14.161c1.21-2.054,2.526-4.041,3.896-5.99c2.439-3.474-2.967,3.65-0.337,0.411
			c0.699-0.86,1.448-1.677,2.2-2.491c1.238-1.343,6.986-5.773,1.457-1.722c0.805-0.589,1.665-1.094,2.525-1.595
			c4.424-2.571-3.458,1.141-0.334,0.111c1.489-0.491,5.14-0.926-1.544-0.056c0.981-0.127,1.975-0.109,2.962-0.092
			c3.932,0.07-5.17-0.98-1.188-0.134c1.105,0.235,2.175,0.622,3.236,1c-5.403-1.926-1.543-0.568-0.27,0.126
			c1.226,0.668,2.379,1.464,3.529,2.25c-4.159-2.842,0.153,0.178,0.859,0.788c0.884,0.764,5.166,5.808,1.658,1.253
			c2.836,3.681,4.965,7.881,6.849,12.107c-2.324-5.214,0.662,2.098,1.082,3.31c0.96,2.773,1.794,5.59,2.614,8.406
			c2.769,9.5,4.957,19.179,8.575,28.41c3.974,10.141,13.255,17.09,24.602,13.968C833.664,508.126,841.936,496.351,837.952,486.186
			L837.952,486.186z"/>
	</g>
</g>
</svg>
