<?xml version="1.0" encoding="utf-8"?>
<!-- Generator: Adobe Illustrator 16.0.0, SVG Export Plug-In . SVG Version: 6.00 Build 0)  -->
<!DOCTYPE svg PUBLIC "-//W3C//DTD SVG 1.1//EN" "http://www.w3.org/Graphics/SVG/1.1/DTD/svg11.dtd">
<svg version="1.1"
	 id="Layer_1" image-rendering="auto" shape-rendering="auto" text-rendering="auto" color-rendering="auto" color-interpolation="auto"
	 xmlns="http://www.w3.org/2000/svg" xmlns:xlink="http://www.w3.org/1999/xlink" x="0px" y="0px" width="1000px" height="1000px"
	 viewBox="0 0 1000 1000" enable-background="new 0 0 1000 1000" xml:space="preserve">
<g>
	<g>
		<path fill="#FFFFFF" d="M962.373,511.83c0,17.089-1.15,30.562-3.451,40.421c-2.301,4.93-5.094,12.816-8.38,23.661
			c-0.985,17.088-3.779,42.393-8.38,75.912c-1.314,6.243-5.422,18.731-12.323,37.463c-22.675,61.452-47.321,107.131-73.94,137.035
			c-37.791,42.064-70.489,67.368-98.094,75.912c-9.201,1.972-23.168,5.258-41.899,9.858c-18.731,6.901-47.486,15.445-86.264,25.633
			c-6.243,0.657-15.609,1.972-28.097,3.943c-3.615,0.657-15.445,4.108-35.492,10.352c-14.459,4.601-26.618,6.901-36.477,6.901
			c-17.746,0-33.52-1.643-47.322-4.93c-1.643-0.328-5.751-1.807-12.323-4.436c-6.573-2.629-10.516-3.944-11.831-3.944h-56.194
			c-0.657,0-4.93-1.972-12.816-5.915s-12.652-6.244-14.295-6.9c-13.802-4.93-34.67-11.831-62.603-20.704
			c-14.459-2.3-35.82-7.558-64.082-15.773c-7.887-3.286-16.431-9.201-25.632-17.746c-13.145-12.159-21.032-19.224-23.661-21.196
			c-3.615-1.971-9.037-4.929-16.267-8.872c-18.403-11.831-35.984-31.055-52.744-57.674c-12.816-23.003-25.797-46.007-38.942-69.011
			c-7.887-9.858-18.074-25.633-30.562-47.321c-3.943-10.188-8.873-41.735-14.788-94.644c-5.258-49.622-7.887-83.142-7.887-100.559
			c0-13.474,3.615-28.097,10.845-43.871s10.844-27.933,10.844-36.478c0-15.445,10.681-30.562,32.041-45.35v-50.279
			c0-1.643,1.808-6.244,5.422-13.802c6.901-14.459,17.746-30.891,32.534-49.293c4.929-4.929,11.995-12.816,21.196-23.661
			c2.629-5.258,6.901-13.145,12.816-23.661c20.375-29.905,51.43-58.002,93.165-84.292c37.135-23.333,75.583-40.914,115.347-52.744
			c5.587-0.657,13.967-1.972,25.14-3.943c34.834-7.229,55.866-10.845,63.096-10.845c57.509,0,97.272,4.93,119.29,14.788
			c3.943,2.629,9.858,6.408,17.746,11.337c9.53,5.258,22.346,9.694,38.448,13.309c13.474,2.958,31.877,8.873,55.209,17.746
			c10.845,1.972,26.783,5.751,47.814,11.337c17.417,6.244,38.777,16.267,64.082,30.069c6.572,3.615,20.867,14.542,42.885,32.78
			c22.018,18.238,34.834,29.986,38.449,35.245c1.314,3.943,8.38,12.98,21.196,27.111c3.614,3.286,12.815,20.046,27.604,50.279
			c14.787,30.233,22.182,47.65,22.182,52.251v40.421c0,1.643,0.493,4.108,1.479,7.394c0.986,3.286,1.479,5.751,1.479,7.394v89.714
			c0,3.286,0.74,8.215,2.219,14.788S962.373,508.544,962.373,511.83z M646.401,153.467v-34.999c-2.3-2.3-4.272-3.45-5.915-3.45
			c-2.629,0-5.587,1.643-8.873,4.929c0,6.901,0.164,13.802,0.493,20.703c0.985,9.53,4.107,14.295,9.366,14.295h1.972
			L646.401,153.467z M904.206,526.618V414.723c0-3.615-0.985-9.037-2.958-16.267c-1.971-7.23-2.957-12.652-2.957-16.267v-43.378
			c0-9.202-9.201-28.59-27.604-58.166c-23.989-38.778-53.072-69.504-87.249-92.179c-15.774-6.901-39.435-17.417-70.982-31.548
			c-4.272,9.53-10.188,17.417-17.746,23.661c-3.943,3.286-16.267,5.916-36.97,7.887c-16.76,1.643-26.618,2.464-29.576,2.464
			c-12.159-18.074-18.238-29.248-18.238-33.52c0-3.286,0.164-8.462,0.492-15.527c0.329-7.065,0.493-12.406,0.493-16.021
			c-8.216-1.972-20.21-5.75-35.984-11.337c-4.601-2.958-11.666-7.065-21.196-12.323c-14.788-6.244-39.928-9.366-75.418-9.366
			c-2.629,0-6.655-0.246-12.077-0.739c-5.422-0.493-9.448-0.739-12.077-0.739c-14.131,0-38.12,5.587-71.969,16.76
			c-30.891,10.516-54.223,20.046-69.997,28.59c-12.159,9.53-28.59,19.881-49.293,31.055c-10.516,8.873-25.304,23.168-44.364,42.885
			c-8.544,12.159-22.018,29.905-40.421,53.237c-23.989,26.29-35.984,42.392-35.984,48.307v36.97c0,2.3-1.808,6.408-5.422,12.323
			c-3.615,5.916-5.751,9.694-6.408,11.338c-0.329,3.286-1.15,8.38-2.465,15.281c-2.958,4.601-7.065,11.995-12.323,22.182
			c-13.802,34.834-20.703,61.781-20.703,80.841c0,10.517,1.479,23.99,4.436,40.421c3.944,23.004,6.08,36.312,6.408,39.928
			c-0.329,17.417,1.972,43.214,6.901,77.391c2.3,7.229,6.901,15.445,13.802,24.646c9.53,12.488,15.117,20.211,16.76,23.168
			c11.501,21.36,23.003,42.722,34.505,64.082c8.873,14.13,26.947,31.548,54.223,52.251c9.858,10.188,25.304,22.018,46.336,35.491
			c14.131,1.972,34.834,6.243,62.109,12.816c12.488,3.943,30.891,10.352,55.209,19.224c4.601,3.287,11.666,7.065,21.196,11.338
			c3.943,0.986,11.009,1.479,21.196,1.479h26.619c3.286-14.788,6.572-29.576,9.858-44.363c5.916-18.074,15.938-27.111,30.069-27.111
			c-3.615,0,3.779,2.957,22.182,8.872c5.587,0.986,11.091,1.972,16.514,2.958c5.422,0.985,9.776,3.697,13.062,8.133
			c3.286,4.437,10.188,20.129,20.703,47.076h12.323c15.117,0,38.121-5.094,69.012-15.281c9.201-4.601,23.496-10.188,42.885-16.76
			c6.244-0.329,15.281-1.644,27.111-3.943c41.078-13.474,77.227-45.515,108.445-96.123c25.962-42.392,43.871-88.728,53.73-139.007
			c0.657-9.53,1.972-23.989,3.943-43.378c0.657-4.272,2.629-12.159,5.915-23.661C902.892,540.914,904.206,532.862,904.206,526.618z
			 M514.295,869.208c0-9.53-3.286-14.295-9.858-14.295c-3.615,0-7.147,3.368-10.598,10.104c-3.451,6.737-5.176,12.241-5.176,16.514
			c0,1.643,1.314,4.025,3.943,7.147s4.765,4.683,6.408,4.683C509.201,893.361,514.295,885.311,514.295,869.208z M793.789,255.012
			h-10.845c-1.314,0-2.547-0.575-3.697-1.726c-1.149-1.15-2.054-1.725-2.711-1.725v-12.816c5.587,0,11.338-0.493,17.253-1.479
			V255.012z M711.962,250.082h-17.253V232.83h17.253V250.082z M872.658,489.648c-6.244,3.286-9.694,4.929-10.352,4.929
			c-6.9,0-10.352-3.779-10.352-11.337c0-3.943,1.644-7.558,4.93-10.845h15.773V489.648z M788.366,376.273
			c0,13.145-2.793,25.633-8.38,37.463c-2.3,4.93-7.394,9.53-15.28,13.802c-12.816,6.901-19.225,10.352-19.225,10.352
			c-1.644-1.314-4.765-5.093-9.366-11.337c-32.862-1.643-49.293-13.145-49.293-34.505c0-9.202,8.133-21.689,24.4-37.463
			c16.267-15.774,29.165-23.661,38.695-23.661c1.643,0,4.354,1.314,8.133,3.943s6.162,4.107,7.148,4.437
			c0.985,0.328,5.915,0.657,14.787,0.985C785.573,344.89,788.366,356.885,788.366,376.273z M543.871,180.579
			c0,6.901-3.45,10.352-10.352,10.352c-3.943,0-8.38-1.479-13.31-4.436v-14.788c4.601-2.958,9.037-4.437,13.31-4.437
			c6.901,0,10.352,2.136,10.352,6.408V180.579z M618.305,272.265c0,10.187-4.93,15.281-14.788,15.281
			c-9.859,0-14.788-4.929-14.788-14.788s4.929-14.788,14.788-14.788C613.375,257.969,618.305,262.734,618.305,272.265z
			 M641.965,372.33c-1.972,0.986-3.779,1.479-5.422,1.479h-7.887c-4.93,0-7.395-2.629-7.395-7.887c0-2.958,1.15-5.586,3.451-7.887
			h17.252V372.33z M742.031,485.212c-4.272,5.258-10.188,7.887-17.746,7.887h-5.915c-1.314,0-6.408-3.122-15.281-9.366v-18.731
			c5.915-5.916,11.009-8.873,15.281-8.873h7.394c5.258,0,10.681,2.465,16.268,7.394V485.212z M846.04,601.545
			c-2.301,1.972-5.258,2.957-8.873,2.957c-2.3,0-5.587-0.493-9.858-1.479c-4.272-0.986-7.395-1.479-9.366-1.479
			c-0.985-2.629-1.479-5.587-1.479-8.873v-8.38c2.629-4.272,6.737-6.408,12.323-6.408h4.93c3.286,0,7.394,2.629,12.323,7.887
			V601.545z M576.404,351.627h-17.252c-2.301-2.301-3.451-5.258-3.451-8.873c0-1.314,1.644-5.258,4.93-11.83l15.773,1.479V351.627z
			 M857.87,658.232c-3.286,1.972-8.051,4.929-14.295,8.872v-7.887c0-5.587,1.644-8.38,4.93-8.38h9.365V658.232z M366.908,202.268
			c-4.601,2.301-8.051,3.451-10.352,3.451c-2.629,0-5.094-1.15-7.394-3.451l1.479-12.816h12.816l3.451,3.451V202.268z
			 M466.48,252.547c0,9.202-5.094,23.168-15.281,41.899c-4.601,8.544-12.159,12.816-22.675,12.816
			c4.272,0-3.286-3.451-22.675-10.352c-7.887-1.314-18.731-4.601-32.534-9.859c-1.972-1.314-4.519-5.176-7.641-11.584
			c-3.122-6.408-4.683-10.762-4.683-13.062c0-3.615,17.91-24.154,53.73-61.617c4.601-0.986,8.873-1.479,12.816-1.479
			c0.657,0,1.643,0.329,2.958,0.986C454.486,208.84,466.48,226.257,466.48,252.547z M714.92,564.082
			c-6.244,3.286-9.859,4.929-10.845,4.929c-0.329,0-3.615-1.643-9.859-4.929v-15.774c3.944-1.972,7.229-2.958,9.859-2.958
			c1.314,0,3.122,0.493,5.422,1.479c2.301,0.985,4.107,1.479,5.423,1.479V564.082z M850.477,717.384
			c-3.943,1.972-9.201,3.615-15.774,4.93c-0.657-1.644-1.314-4.107-1.972-7.394c3.615,0,6.737-2.465,9.366-7.395h8.38V717.384z
			 M792.311,668.584c-0.658-0.329-1.479-0.493-2.465-0.493c-5.916,0-8.545,4.107-7.887,12.323h-19.225v-18.731
			c1.314,0,3.204-0.329,5.668-0.986c2.465-0.657,4.354-0.985,5.669-0.985c-0.657,0,1.808,1.479,7.395,4.437
			c0.328-0.986,1.149-2.301,2.464-3.943h8.381V668.584z M808.577,703.582c-12.488,0-18.731,0-18.731,0v-14.788
			c3.943-4.272,7.887-6.408,11.83-6.408c2.301,0,4.601,1.15,6.901,3.45V703.582z M834.209,740.059
			c-2.3-0.328-5.75-0.821-10.352-1.479v-8.38h10.352V740.059z M709.004,628.163h-3.45c-2.958-0.329-7.559-0.821-13.802-1.479
			v-11.338h17.252V628.163z M783.438,737.102h-15.774v-12.816h15.774V737.102z M804.141,762.241h-14.295
			c-3.286-3.286-4.93-6.408-4.93-9.366c0-5.586,2.793-8.38,8.38-8.38c0.986,0,4.601,1.644,10.845,4.93V762.241z M720.835,728.229
			c-1.314,0.329-2.629,0.493-3.944,0.493h-7.887c-0.985,0-2.3-0.164-3.943-0.493c-1.972,0-3.45,0-4.437,0l-1.972-1.972v-14.295
			c1.972-1.972,4.766-2.958,8.38-2.958h2.465c3.615,0,7.394,1.644,11.338,4.93V728.229z M479.79,485.212
			c-4.272,2.3-7.394,3.451-9.366,3.451s-5.422-0.986-10.352-2.958c-4.929-1.972-8.215-3.122-9.858-3.451V471.41
			c1.643,0.986,11.501,1.15,29.576,0.493V485.212z M611.403,537.956c0,9.858-3.122,25.633-9.366,47.321
			c-6.572,23.004-12.651,37.463-18.238,43.379c-11.502-2.629-22.018-7.888-31.548-15.774
			c-13.474-11.502-22.511-18.567-27.111-21.196c-8.544-2.957-19.553-8.215-33.026-15.773c-3.287-2.958-4.93-7.723-4.93-14.295
			c0-6.901,5.915-17.253,17.746-31.055c10.844-12.488,20.046-20.704,27.604-24.647c3.287-1.643,7.559-2.465,12.816-2.465
			c0,0,6.737,2.465,20.211,7.395c5.915,0.657,14.459,2.465,25.633,5.422c0.656,0.329,7.229,5.094,19.717,14.296
			C611.239,532.862,611.403,535.327,611.403,537.956z M393.526,420.145c-3.943,3.943-7.23,5.916-9.859,5.916
			c-11.173,0-16.76-4.272-16.76-12.816c0-9.202,4.437-13.802,13.309-13.802c4.601,0,9.037,1.972,13.31,5.915V420.145z
			 M747.453,801.183h-15.281c-5.258-4.929-7.887-8.872-7.887-11.83c0-6.901,2.629-10.352,7.887-10.352h15.281V801.183z
			 M653.796,705.554c-4.601,2.3-7.559,3.45-8.873,3.45s-3.204-0.575-5.669-1.725c-2.465-1.15-4.354-1.726-5.669-1.726v-15.774
			c3.943-1.972,7.065-2.957,9.366-2.957h3.943c2.301,0,4.601,1.15,6.901,3.45V705.554z M260.927,337.825l-1.972,1.972
			c-3.943-0.657-9.694-1.808-17.253-3.451v-11.337c1.314,0,3.451-0.247,6.408-0.739c2.958-0.493,5.094-0.74,6.408-0.74
			c1.972,0,4.108,0.986,6.408,2.958V337.825z M738.58,832.238h-20.21v-15.774c1.314,0,3.368-0.575,6.161-1.726
			c2.794-1.149,4.848-1.725,6.162-1.725c0.986,0,3.615,1.15,7.887,3.45V832.238z M640.486,780.973c0,1.314-3.615,4.107-10.845,8.38
			h-4.929c-2.301-3.615-3.451-7.394-3.451-11.338c0-3.943,1.15-7.065,3.451-9.365h14.295c0,1.314,0.246,3.368,0.739,6.161
			C640.24,777.604,640.486,779.658,640.486,780.973z M277.687,432.961c0,1.314-0.575,3.122-1.725,5.422
			c-1.15,2.3-1.725,4.108-1.725,5.422c-2.301,0-5.916-0.247-10.845-0.739c-4.93-0.493-8.544-0.74-10.845-0.74
			c-1.314-3.943-1.972-9.202-1.972-15.774c2.629-4.272,7.394-6.408,14.295-6.408C273.415,420.145,277.687,424.417,277.687,432.961z
			 M542.393,745.975h-8.873v-8.38h8.873V745.975z M631.613,852.941c-2.629,1.314-5.586,1.972-8.873,1.972
			c-4.601,0-8.544-1.644-11.83-4.93c0.986-6.572,4.272-9.858,9.858-9.858h2.958c2.958,0,5.587,1.15,7.887,3.45V852.941z
			 M555.701,781.466h-2.957c-2.958-0.329-7.395-0.821-13.31-1.479l1.972-12.816h14.295V781.466z M512.323,745.975h-9.858v-5.423
			h9.858V745.975z M269.8,530.069c-2.629,1.314-6.08,1.972-10.352,1.972c-5.587,0-9.53-1.15-11.831-3.451v-11.337
			c3.615-3.286,7.558-4.93,11.831-4.93c4.601,0,8.051,1.15,10.352,3.45V530.069z M423.103,707.525
			c-5.916,3.615-10.845,5.422-14.788,5.422h-8.873c0.329-0.657,0.493-8.38,0.493-23.168c1.314,0,3.204-0.246,5.668-0.739
			c2.465-0.492,4.354-0.739,5.669-0.739c4.601,0,8.544,1.479,11.831,4.437V707.525z M330.924,638.515
			c-2.301,2.3-5.258,3.45-8.873,3.45s-7.065-1.643-10.352-4.929v-8.38c4.601-1.972,7.723-2.958,9.366-2.958h2.958
			c2.629,0,4.929,0.986,6.901,2.958V638.515z M171.706,469.931c0,9.53-4.929,14.295-14.788,14.295h-3.944
			c-4.272,0-7.887-2.136-10.844-6.408v-15.774c2.629-2.958,6.244-4.437,10.844-4.437h4.929
			C167.105,457.607,171.706,461.715,171.706,469.931z M442.327,793.789c-4.929,0.985-12.159,2.465-21.689,4.437
			c-3.286-4.601-4.93-8.544-4.93-11.831c0-7.887,4.272-11.83,12.816-11.83h3.451c4.601,0,8.051,1.644,10.352,4.93V793.789z
			 M350.148,707.525H326.98c-1.314-1.314-1.972-3.779-1.972-7.395c0-8.872,5.258-13.309,15.774-13.309
			c0.986,0,2.547,0.246,4.683,0.739c2.136,0.493,3.697,0.739,4.683,0.739V707.525z M451.692,841.11
			c-2.629,2.301-5.422,3.451-8.38,3.451c-0.986,0-2.3-0.329-3.943-0.986s-2.958-0.985-3.943-0.985c0-1.644,0.246-4.272,0.739-7.888
			c0.493-3.614,0.739-6.243,0.739-7.887h12.816l1.972,1.479V841.11z M282.123,609.432c0,6.244-5.176,17.417-15.527,33.52
			s-18.321,24.153-23.907,24.153c-1.644,0-4.026-0.985-7.147-2.957c-3.122-1.972-5.505-2.958-7.148-2.958s-4.436,1.232-8.38,3.697
			c-3.943,2.465-6.901,3.697-8.873,3.697c-6.901,0-16.185-4.684-27.851-14.049c-11.666-9.366-17.499-17.499-17.499-24.4
			c0,4.272,1.314,0,3.943-12.816c0.329-1.643,0.493-8.051,0.493-19.225c0-7.887,1.643-15.116,4.929-21.688
			c1.643,0,4.354-0.247,8.133-0.74c3.779-0.492,6.655-0.739,8.626-0.739c28.919,0,53.73,3.615,74.433,10.845
			C276.865,589.386,282.123,597.272,282.123,609.432z M420.145,859.35h-12.816l-3.45-3.451v-9.858h16.267V859.35z M443.806,883.01
			H429.51v-9.858h14.295V883.01z M395.005,863.785h-12.816l-3.45-3.45v-12.816c1.972-0.657,3.615-0.985,4.929-0.985h6.408
			c1.314,0,2.958,0.328,4.929,0.985V863.785z M304.305,783.438h-22.182v-19.225c1.314,0,3.451-0.246,6.408-0.739
			s5.258-0.739,6.901-0.739c3.615,0,6.573,1.643,8.873,4.929V783.438z M240.224,753.368c-1.643-0.328-4.683-1.396-9.119-3.204
			s-7.641-2.711-9.612-2.711c-2.3,0-3.286,0.986-2.958,2.957c-0.329-2.957-0.493-4.601-0.493-4.929v-1.972
			c0-5.258,3.451-7.887,10.352-7.887c3.944,0,7.887,1.643,11.831,4.929V753.368z M752.383,364.443v-7.887h-12.816
			c-15.117,17.417-22.676,27.44-22.676,30.069v4.93c1.315,0.986,3.615,2.136,6.901,3.45L752.383,364.443z M424.581,228.886
			c-1.314-1.314-3.122-1.972-5.422-1.972l-24.154,38.942c2.301,4.601,5.094,6.901,8.38,6.901
			C409.629,272.757,416.694,258.134,424.581,228.886z M557.181,541.899v-8.38c-4.601-4.272-8.544-6.408-11.831-6.408
			c-2.629,0-7.558,4.272-14.788,12.816v8.38h6.901C542.063,546.993,548.637,544.857,557.181,541.899z M218.042,613.868
			c0-2.629-2.464-5.998-7.394-10.105c-4.929-4.107-8.708-6.161-11.337-6.161h-7.887c0,1.643-0.328,4.189-0.985,7.64
			c-0.657,3.451-0.986,5.998-0.986,7.641c0,10.517,3.944,15.774,11.831,15.774c3.286,0,6.901-1.644,10.845-4.93
			C216.07,620.44,218.042,617.154,218.042,613.868z"/>
	</g>
</g>
</svg>
