<?xml version="1.0" encoding="utf-8"?>
<!-- Generator: Adobe Illustrator 16.0.0, SVG Export Plug-In . SVG Version: 6.00 Build 0)  -->
<!DOCTYPE svg PUBLIC "-//W3C//DTD SVG 1.1//EN" "http://www.w3.org/Graphics/SVG/1.1/DTD/svg11.dtd">
<svg version="1.1" id="Layer_1" xmlns="http://www.w3.org/2000/svg" xmlns:xlink="http://www.w3.org/1999/xlink" x="0px" y="0px"
	 width="1000px" height="1000px" viewBox="0 0 1000 1000" enable-background="new 0 0 1000 1000" xml:space="preserve">
<g>
	<g>
		<path fill="#FFFFFF" d="M810.111,282.237c-43.912-69.726-113.746-120.004-199.647-143.895
			C603.215,83.835,556.459,41.635,500,41.635c-56.459,0-103.214,42.2-110.464,96.704c-85.9,23.891-155.735,74.169-199.646,143.895
			c-83.075,8.795-148.015,79.279-148.015,164.648c0,83.426,62.032,152.602,142.387,163.915l69.068,347.568h493.342l69.066-347.564
			c80.354-11.314,142.387-80.491,142.387-163.916C958.123,361.517,893.185,291.032,810.111,282.237z M500,101.421
			c28.501,0,51.686,23.185,51.686,51.686S528.501,204.792,500,204.792s-51.686-23.185-51.686-51.686S471.499,101.421,500,101.421z
			 M302.405,898.579l-57.312-288.403c33.602-4.284,56.816-13.925,72.033-23.011c7.993,5.438,18.087,11.228,30.097,16.024
			l18.401,295.392h-63.219V898.579z M574.478,898.579H425.526l-17.738-284.754c43.401-0.951,73.641-14.279,92.215-26.342
			c18.575,12.062,48.814,25.391,92.215,26.342L574.478,898.579z M697.595,898.579h-63.219l18.403-295.395
			c11.958-4.779,22.022-10.541,30.001-15.959c13.896,8.669,48.565,20.014,72.123,22.974L697.595,898.579z M792.55,552.673
			c-60.334,0-83.479-19.264-86.908-22.468l-19.594-31.061l-25.786,29.754c-2.066,2.14-25.244,25.233-63.146,25.233
			c-48.963,0-71.72-21.794-74.456-24.61l-21.938-29.702l-23.341,29.663c-2.55,2.641-25.287,24.649-74.497,24.649
			c-37.629,0-60.746-22.765-63.097-25.187l-24.023-31.291l-21.375,32.521c-3.314,3.116-26.412,22.498-86.941,22.498
			c-58.332,0-105.787-47.457-105.787-105.788s47.457-105.788,105.787-105.788H225l8.551-15.323
			c41.921-75.107,108.371-110.783,164.489-127.685c17.327,39.119,56.496,66.488,101.958,66.488
			c45.463,0,84.633-27.371,101.958-66.488c56.117,16.902,122.571,52.576,164.488,127.685l8.552,15.323h17.552
			c58.333,0,105.788,47.457,105.788,105.788C898.337,505.216,850.881,552.673,792.55,552.673z"/>
	</g>
</g>
</svg>
