<?xml version="1.0" encoding="utf-8"?>
<!-- Generator: Adobe Illustrator 16.0.0, SVG Export Plug-In . SVG Version: 6.00 Build 0)  -->
<!DOCTYPE svg PUBLIC "-//W3C//DTD SVG 1.1//EN" "http://www.w3.org/Graphics/SVG/1.1/DTD/svg11.dtd">
<svg version="1.1"
	 id="Layer_1" image-rendering="auto" shape-rendering="auto" text-rendering="auto" color-rendering="auto" color-interpolation="auto"
	 xmlns="http://www.w3.org/2000/svg" xmlns:xlink="http://www.w3.org/1999/xlink" x="0px" y="0px" width="1000px" height="1000px"
	 viewBox="0 0 1000 1000" enable-background="new 0 0 1000 1000" xml:space="preserve">
<g>
	<path fill="#FFFFFF" d="M959.407,526.146c0,54.469-11.205,101.623-33.615,141.464c-5.603,9.648-20.854,25.678-45.754,48.088
		c-22.722,20.231-52.135,40.93-88.239,62.095c-9.649,3.735-24.123,9.493-43.42,17.274c-73.145,30.503-155.626,45.754-247.445,45.754
		c-44.197,0-92.598-5.136-145.199-15.407c-56.959-11.205-103.18-25.678-138.662-43.419c-19.297-9.649-42.797-24.589-70.498-44.82
		c-29.881-21.788-50.578-39.996-62.096-54.625c-29.257-36.416-43.886-88.551-43.886-156.403c0-22.1,2.646-42.331,7.937-60.694
		c0.623-2.49,3.424-8.56,8.404-18.208c4.98-9.649,7.47-14.94,7.47-15.874v-41.552c0,6.225,2.802-2.801,8.403-27.079
		c7.781-34.238,29.414-68.476,64.896-102.713c33.615-32.682,68.008-54.625,103.18-65.83c38.596-12.139,74.545-20.542,107.849-25.211
		c46.999-6.536,80.304-9.804,99.912-9.804h102.713c17.741,0,51.046,3.268,99.911,9.804
		c105.203,14.006,183.795,52.602,235.773,115.786c20.231,24.589,32.992,49.178,38.284,73.767c0.622,2.179,2.489,7.781,5.603,16.808
		c3.112,7.781,4.668,12.45,4.668,14.006v42.486c4.67,9.337,9.961,20.542,15.875,33.615
		C956.762,483.504,959.407,503.735,959.407,526.146z M706.359,410.826c0-32.992-6.381-59.604-19.142-79.836
		c-11.517-7.159-18.675-10.738-21.477-10.738c2.802,0-1.089,1.245-11.672,3.735c-0.622,0.623-2.802,2.49-6.536,5.603v5.136
		c0,2.179,0.156,3.735,0.467,4.669c3.424,8.715,9.182,18.519,17.274,29.413c5.292,6.536,7.937,16.185,7.937,28.946v2.801
		c0,8.404-2.801,17.197-8.403,26.378c-5.603,9.182-8.403,14.24-8.403,15.174c0,3.424,1.479,7.392,4.435,11.905
		c2.957,4.513,5.991,6.77,9.104,6.77c3.112,0,7.859-2.101,14.24-6.303c6.38-4.202,10.349-7.704,11.904-10.505
		C702.936,431.213,706.359,420.164,706.359,410.826z M625.123,406.625v-13.073c-26.457-21.787-71.898-32.681-136.328-32.681
		c-23.033,0-53.847,6.536-92.441,19.609c-3.735,1.245-10.428,5.603-20.076,13.072v13.073c5.603,4.046,13.851,10.116,24.744,18.208
		c4.67-7.159,8.715-11.517,12.139-13.073c6.226-3.113,20.388-6.537,42.486-10.271c20.854-3.423,35.639-5.135,44.354-5.135
		c35.172,0,64.117,5.135,86.839,15.407c4.046,1.868,8.093,6.225,12.14,13.073C604.892,420.787,613.606,414.717,625.123,406.625z
		 M571.432,436.038c-1.867-0.312-2.957-1.557-3.268-3.735L500,427.634c-4.047-0.311-26.301,1.401-66.764,5.136l-4.201,3.269
		c32.059,10.271,53.068,15.407,63.027,15.407h22.877C518.053,451.445,536.883,446.309,571.432,436.038z M928.127,526.146
		c0,5.913-1.713-14.94-5.137-62.562c-8.092,13.073-14.784,29.569-20.075,49.489c-0.312,4.669-2.023,11.05-5.136,19.143
		c-4.047,5.603-14.396,16.341-31.047,32.214c-16.652,15.874-27.936,25.834-33.85,29.881c-39.217,26.456-74.389,44.353-105.514,53.69
		c-24.589,7.159-61.473,14.474-110.65,21.943c-31.436,4.669-49.333,7.003-53.69,7.003H436.972c-4.046,0-20.388-2.179-49.022-6.536
		c-27.078-3.735-66.919-11.672-119.521-23.811c-26.456-8.404-56.959-23.811-91.508-46.221c-38.595-24.9-63.495-47.466-74.7-67.697
		c-3.424-6.536-7.314-18.52-11.672-35.95c-3.735-16.185-7.781-27.235-12.139-33.148c-4.357,21.788-6.537,42.953-6.537,63.496
		c0,24.277,4.357,51.2,13.072,80.77c6.537,22.41,12.918,37.817,19.143,46.221c26.145,36.105,68.787,67.853,127.924,95.243
		c21.477,9.96,57.66,21.32,108.55,34.082s93.298,19.142,127.224,19.142c46.999,0,74.389-0.311,82.17-0.934
		c0.935,0,8.404-1.089,22.41-3.268c14.007-1.245,34.861-4.047,62.562-8.404c58.516-14.317,101.468-27.39,128.857-39.218
		c38.906-17.119,76.102-42.642,111.584-76.567c5.291-4.357,12.139-11.05,20.543-20.076
		C917.389,620.454,928.127,577.812,928.127,526.146z M218.006,322.587c0-16.497-4.668-24.745-14.006-24.745
		c-8.715,0-19.609,6.847-32.682,20.542s-20.231,25.056-21.477,34.082c-3.112,22.721-4.668,34.86-4.668,36.417
		c0,22.721,2.645,38.128,7.936,46.221c13.695,20.854,30.659,31.281,50.891,31.281c0.934,0,4.668-1.556,11.205-4.669l0.467-8.403
		c0-4.046-2.801-12.684-8.404-25.912c-5.602-13.228-8.403-24.511-8.403-33.849c0-15.562,1.556-27.234,4.669-35.016
		c0.311-0.623,3.424-6.381,9.338-17.274C216.294,335.037,218.006,328.812,218.006,322.587z"/>
</g>
</svg>
