<?xml version="1.0" encoding="utf-8"?>
<!-- Generator: Adobe Illustrator 16.0.0, SVG Export Plug-In . SVG Version: 6.00 Build 0)  -->
<!DOCTYPE svg PUBLIC "-//W3C//DTD SVG 1.1//EN" "http://www.w3.org/Graphics/SVG/1.1/DTD/svg11.dtd">
<svg version="1.1"
	 id="Layer_1" image-rendering="auto" shape-rendering="auto" text-rendering="auto" color-rendering="auto" color-interpolation="auto"
	 xmlns="http://www.w3.org/2000/svg" xmlns:xlink="http://www.w3.org/1999/xlink" x="0px" y="0px" width="1000px" height="1000px"
	 viewBox="0 0 1000 1000" enable-background="new 0 0 1000 1000" xml:space="preserve">
<g id="XMLID_285_">
	<path id="XMLID_363_" fill="#FF5C5C" d="M961.413,400.379c-0.953,15.272-2.295,30.75-4.385,45.817
		c-5.351,38.975-16.614,76.195-34.758,111.327c-17.938,34.387-41.435,64.561-67.598,92.997
		c-24.636,26.741-50.982,51.562-78.282,75.616c-45.838,40.113-91.859,80.02-137.68,120.112
		c-46.209,40.484-91.856,81.917-136.536,124.325c-0.579,0.559-1.342,1.134-2.108,1.9c-0.558-0.579-1.137-0.95-1.716-1.529
		c-62.432-59.187-126.971-116.288-192.089-172.621c-39.722-34.369-79.44-68.363-117.63-104.261
		c-25.007-23.681-49.083-48.317-70.658-75.43c-27.691-34.553-49.267-72.559-62.244-115.15c-6.303-20.418-10.686-41.23-13.559-62.432
		c-3.634-27.487-5.35-55.384-4.4-83.057c3.245-104.465,69.518-192.109,169.771-220.939c15.272-4.401,30.732-7.067,46.581-8.41
		c68.755-5.724,129.286,14.713,181.985,58.815c24.259,20.438,44.493,44.493,61.107,71.421c0.953,1.342,1.716,2.667,2.853,4.4
		c1.158-2.108,2.108-3.637,3.263-5.166c19.842-31.887,44.68-59.766,75.041-82.105c31.123-22.919,65.489-38.191,103.491-44.886
		c20.234-3.617,40.485-4.382,60.906-2.854c44.697,3.432,85.743,17.38,122.217,43.73c43.917,31.701,72.95,73.9,88.035,125.649
		c4.383,15.272,7.069,30.937,8.394,46.787C962.939,363.139,962.755,381.861,961.413,400.379z"/>
</g>
</svg>
