<?xml version="1.0" encoding="utf-8"?>
<!-- Generator: Adobe Illustrator 16.0.0, SVG Export Plug-In . SVG Version: 6.00 Build 0)  -->
<!DOCTYPE svg PUBLIC "-//W3C//DTD SVG 1.1//EN" "http://www.w3.org/Graphics/SVG/1.1/DTD/svg11.dtd">
<svg version="1.1"
	 id="Layer_1" image-rendering="auto" shape-rendering="auto" text-rendering="auto" color-rendering="auto" color-interpolation="auto"
	 xmlns="http://www.w3.org/2000/svg" xmlns:xlink="http://www.w3.org/1999/xlink" x="0px" y="0px" width="1000px" height="1000px"
	 viewBox="0 0 1000 1000" enable-background="new 0 0 1000 1000" xml:space="preserve">
<g>
	<g>
		<path fill="#FFFFFF" d="M944.719,252.14c0-1.238-0.773,3.25-2.321,13.462c-0.618,4.952-1.856,12.534-3.714,22.747
			c-4.332,18.878-15.164,36.982-32.494,54.313c-18.26,18.259-36.674,27.389-55.242,27.389c-3.714,0-9.207-0.929-16.479-2.785
			c-7.272-1.857-12.767-2.786-16.479-2.786c-3.714,0-56.325,38.066-157.834,114.197l-147.62,111.412
			c-34.662,26.615-62.051,49.362-82.167,68.24C319.266,762.932,232.612,842.468,170.407,896.936
			c-5.261,3.404-12.998,8.975-23.21,16.712c-30.329,25.687-44.72,38.53-43.172,38.53c-5.88,0-15.319-3.56-28.317-10.678
			c-2.476-1.237-6.499-8.742-12.07-22.514c-5.571-13.772-8.356-22.515-8.356-26.229c0-16.402,3.869-36.363,11.605-59.884
			c26.924-81.702,56.325-157.369,88.201-227.002c12.688-23.829,31.412-59.574,56.17-107.233
			c27.234-53.23,59.729-119.149,97.485-197.756c4.642-9.594,11.605-26.615,20.89-51.064c10.522-27.543,15.783-43.946,15.783-49.207
			s-0.851-13.462-2.553-24.603c-1.702-11.142-2.554-19.497-2.554-25.068c0-4.333,0.31-8.201,0.929-11.605
			c1.547-8.666,9.284-22.127,23.211-40.387c14.854-19.497,26.15-29.246,33.888-29.246c1.238,0,3.25,0.232,6.035,0.696
			c2.785,0.464,4.797,0.696,6.035,0.696c6.499,0,16.17-1.47,29.014-4.41c12.843-2.94,22.515-4.41,29.014-4.41
			c3.713,0,9.439,0.696,17.176,2.089c7.737,1.393,13.462,2.089,17.176,2.089c1.857,0,4.643-0.232,8.356-0.696
			s6.499-0.696,8.355-0.696c2.166,0,14.7,3.25,37.602,9.749c21.973,6.189,40.231,9.284,54.777,9.284c1.856,0,4.797-0.232,8.82-0.696
			c4.023-0.464,6.963-0.696,8.82-0.696c2.785,0,6.653,0.464,11.605,1.393c4.951,0.929,8.665,1.393,11.141,1.393
			c2.785,0,7.041-0.464,12.767-1.393c5.725-0.929,9.98-1.393,12.766-1.393c4.642,0,10.521,2.166,17.64,6.499
			c8.356,4.952,14.236,7.892,17.641,8.82c0.619,0,8.975,0,25.067,0c10.213,0,18.568,2.011,25.068,6.035
			c9.902,6.499,16.401,10.368,19.496,11.605c5.881,1.238,14.546,3.868,25.996,7.892c16.094,8.666,32.031,19.342,47.814,32.031
			c3.404,4.333,9.13,10.213,17.176,17.64c0.619,0.31,3.404,0.464,8.356,0.464c4.951,0,14.391,3.868,28.317,11.605
			c13.926,7.737,22.282,13.462,25.067,17.176c1.548,1.857,3.481,9.594,5.803,23.211S944.719,248.117,944.719,252.14z
			 M902.939,260.96c0-6.189-1.393-13.308-4.178-21.354c-3.095-10.212-6.964-15.319-11.605-15.319c-5.88,0-12.921,2.785-21.122,8.355
			c-8.201,5.571-13.075,11.142-14.623,16.712c-1.547,7.428-4.178,18.414-7.892,32.959c-0.31,0.928-3.404,5.106-9.284,12.534h-0.929
			h-6.499l-1.856-0.928v-4.178c0-15.783,4.487-32.959,13.462-51.528c4.643-5.261,11.296-13.153,19.962-23.675
			c-4.643-0.31-10.986-2.012-19.033-5.106c-3.714-4.642-9.594-11.141-17.641-19.497c-7.736-6.809-19.807-15.938-36.208-27.389
			c-6.809-1.547-16.867-4.642-30.175-9.285c-0.928-0.619-3.868-2.708-8.819-6.267c-4.952-3.559-7.892-5.338-8.82-5.338h-37.602
			c-0.929,0-4.874-1.702-11.838-5.106c-6.963-3.404-11.683-5.261-14.158-5.571c-13.927-2.476-30.948-3.714-51.063-3.714
			c-1.857,0-4.797,0.232-8.82,0.696c-4.023,0.464-6.963,0.697-8.82,0.697c-3.714,0-11.296-1.393-22.746-4.178
			c-11.451-2.785-20.735-4.178-27.854-4.178c-5.261,0-10.058-1.083-14.391-3.25c-5.57-2.786-9.594-4.488-12.069-5.106
			c-22.901-4.333-43.946-6.499-63.134-6.499c3.404,0-18.878,1.702-66.847,5.106c-11.76,0.928-20.58,10.522-26.46,28.781
			c-1.547,4.333-2.321,11.76-2.321,22.282c0,3.404,0.387,8.356,1.16,14.855c0.774,6.499,1.161,11.296,1.161,14.391
			c9.903-5.88,20.89-8.82,32.959-8.82c4.333,0,11.063,0.773,20.193,2.321c9.129,1.548,15.86,2.321,20.193,2.321
			c3.095,0,7.737-0.773,13.926-2.321c6.19-1.547,10.832-2.321,13.927-2.321c5.88,0,11.528,1.238,16.944,3.713
			c5.416,2.476,8.433,3.714,9.052,3.714c2.786,0,7.041-0.928,12.766-2.785c5.725-1.857,9.98-2.785,12.766-2.785
			c14.545,0,24.294,2.785,29.246,8.355c3.094,3.714,6.034,7.428,8.819,11.142c22.592,10.832,35.126,16.247,37.602,16.247
			c1.548,0,3.637-0.464,6.267-1.393c2.631-0.928,4.72-1.393,6.268-1.393c10.832,0,23.984,2.631,39.458,7.892
			c12.688,6.809,32.341,16.093,58.956,27.853c11.141,2.476,24.139,6.19,38.994,11.141c4.642,2.786,9.129,9.594,13.462,20.426
			c17.331,2.476,30.638,5.725,39.923,9.749c10.831,4.642,19.342,14.545,25.531,29.709c5.262,12.689,12.379,19.033,21.354,19.033
			c9.284,0,17.949-4.642,25.996-13.927c12.379-14.236,20.58-29.091,24.603-44.564C902.32,279.529,902.939,271.792,902.939,260.96z
			 M597.949,243.32c-15.164-3.095-22.282-4.642-21.354-4.642c-5.88,0-17.331,4.178-34.352,12.534
			c-18.569,8.975-27.854,16.093-27.854,21.354v6.499c1.238-0.31,4.023-1.625,8.355-3.946c4.333-2.321,7.118-3.482,8.356-3.482
			c9.284,0,15.319,9.13,18.104,27.389h5.106c10.522-4.333,19.807-9.749,27.853-16.248c-7.736-7.737-11.605-12.534-11.605-14.391
			c0-6.809,3.56-10.987,10.678-12.534C589.903,253.688,595.474,249.509,597.949,243.32z M660.154,367.729
			c-4.023-5.261-8.82-7.892-14.391-7.892c-4.642,0-8.355,1.238-11.141,3.714c-15.475,13.926-23.211,33.114-23.211,57.562
			c0,2.167,1.779,5.493,5.338,9.981c3.56,4.487,6.268,6.731,8.124,6.731c0.929,0,2.089-0.31,3.481-0.928
			c1.393-0.619,2.398-0.929,3.018-0.929c-1.856-4.952-2.785-10.058-2.785-15.319C628.588,402.391,639.11,384.751,660.154,367.729z
			 M541.779,462.43c0-2.785-1.547-11.915-4.642-27.389c-6.499,0.928-11.683,6.189-15.552,15.783
			c-3.868,9.594-7.195,14.391-9.98,14.391c-1.547,0-3.714-0.696-6.499-2.089s-4.952-2.089-6.499-2.089
			c1.238,0-2.476,1.238-11.141,3.714c-3.095,6.499-8.046,19.188-14.855,38.065c9.903-1.856,17.021-2.785,21.354-2.785
			c3.095,0,4.642,2.166,4.642,6.499c0,2.166-1.006,5.647-3.018,10.444s-3.017,8.279-3.017,10.445c0,0.929,0.309,2.321,0.928,4.178
			c0.619,1.857,0.929,3.25,0.929,4.178c4.951-1.547,12.379-3.559,22.282-6.034C533.424,500.65,541.779,478.213,541.779,462.43z
			 M780.387,336.627c0-1.547-0.31-2.785-0.929-3.713c-9.594-7.737-25.377-17.331-47.351-28.782
			c-15.474-2.476-36.208-6.653-62.204-12.534c-1.238-0.309-3.481-1.779-6.731-4.41c-3.25-2.631-5.339-3.946-6.267-3.946
			c-1.238,0-2.94,0.464-5.106,1.393c-2.166,0.929-3.869,1.393-5.106,1.393c-2.785,0-18.878-6.654-48.278-19.961
			c0,2.476,0.387,6.189,1.16,11.141s1.16,8.666,1.16,11.141c0,2.167-4.487,5.571-13.462,10.213
			c-3.714,3.404-9.594,7.892-17.64,13.462c-7.428,3.095-16.248,4.642-26.461,4.642c-5.88,0-9.438-2.785-10.677-8.356
			c-2.476-9.594-3.868-14.545-4.178-14.855c-9.594,2.785-14.7,4.178-15.319,4.178c0.31,0-5.416-3.249-17.176-9.748
			c-0.929-4.643-1.393-7.892-1.393-9.749c0-6.808,10.521-20.425,31.566-40.851h-68.24c-1.238,0-3.559-1.47-6.963-4.41
			s-5.725-4.41-6.963-4.41c-3.095,0-7.814,0.929-14.159,2.785c-6.344,1.857-11.064,2.786-14.159,2.786
			c-1.857,0-4.487-0.232-7.892-0.696c-3.404-0.464-6.035-0.697-7.892-0.697c-6.189,0-15.938,2.631-29.246,7.892
			c-4.642,16.402-12.224,41.005-22.747,73.81c-3.714,6.809-8.666,17.331-14.855,31.567c-7.737,14.545-18.878,36.673-33.423,66.383
			c-14.236,31.257-43.172,96.867-86.809,196.828c0.31,2.785,3.018,10.367,8.124,22.746c5.106,12.38,7.659,22.592,7.659,30.639
			c0,11.142-0.619,18.724-1.856,22.746c-4.333,13.927-12.225,26.771-23.675,38.53c-12.998,13.617-25.996,20.426-38.994,20.426
			c-0.928,0-2.011-0.232-3.25-0.696c-1.238-0.465-2.321-0.696-3.25-0.696c-6.809,0-11.915,4.951-15.319,14.854
			c-26.615,77.679-39.768,123.636-39.458,137.872h12.534c18.569-16.093,42.089-40.232,70.561-72.418
			c32.186-36.518,54.932-61.276,68.24-74.274c5.261-5.261,38.53-33.423,99.806-84.487c28.163-24.448,70.715-60.657,127.66-108.626
			c-4.333-4.952-6.499-10.059-6.499-15.319c0-1.857,0.619-4.564,1.856-8.124c1.238-3.559,1.702-6.267,1.393-8.124v-2.32
			c-10.212,3.713-14.7,5.57-13.462,5.57c-9.284,0-13.927-3.868-13.927-11.605c0-6.189,8.201-23.365,24.604-51.528
			c-7.118-1.547-10.522-5.416-10.213-11.605v-2.321c4.643-4.023,11.76-6.345,21.354-6.963c10.832-0.929,17.176-1.857,19.032-2.786
			c3.404-4.333,9.13-10.367,17.176-18.104c3.096-2.166,8.047-3.249,14.855-3.249c7.118,0,13.927,4.178,20.426,12.534v47.35
			c0-3.714-1.857,4.178-5.571,23.675l54.313-45.029c-10.522-21.664-15.783-41.006-15.783-58.027c0-9.903,2.089-17.795,6.267-23.675
			c4.179-5.88,8.589-11.915,13.23-18.104c13.308-23.83,31.566-35.745,54.777-35.745c4.333,0,15.165,2.631,32.495,7.892
			c17.331,5.261,27.698,9.13,31.103,11.605c0.929,0.619,3.56,4.333,7.892,11.142c3.714,5.57,6.654,8.355,8.82,8.355
			c3.404,0,10.058-3.327,19.961-9.98S780.387,339.722,780.387,336.627z M172.264,675.505c-1.238-2.476-1.857-4.952-1.857-7.428
			c-0.619-0.31-1.238-0.464-1.857-0.464c-5.57,0-11.605,6.344-18.104,19.032c-5.88,11.451-8.82,20.116-8.82,25.996v6.499
			c4.333,2.167,8.046,3.25,11.141,3.25L172.264,675.505z M809.168,228.001c-1.857,2.166-4.487,3.249-7.892,3.249
			c-1.238,0-2.94-0.696-5.106-2.089s-3.869-2.089-5.106-2.089c-1.856,0-5.57,2.785-11.142,8.356h-8.355
			c-0.929,0-1.393-1.083-1.393-3.25c0-4.333,2.708-8.434,8.124-12.302c5.415-3.869,10.444-5.803,15.087-5.803
			c6.809,0,12.069,3.095,15.783,9.284V228.001z M710.754,202.469h-6.035c-1.237,0-3.249-0.928-6.034-2.785s-4.952-2.785-6.499-2.785
			c-1.238,0-3.327,1.16-6.268,3.481c-2.939,2.321-5.028,3.481-6.267,3.481c-4.333,0-6.499-1.856-6.499-5.57
			c0-4.333,2.631-8.124,7.892-11.374c5.262-3.25,10.213-4.874,14.855-4.874C701.779,182.043,706.73,188.852,710.754,202.469z
			 M641.586,169.045c-0.929,0-2.398,0.232-4.41,0.696s-3.481,0.696-4.41,0.696c-1.856,0-4.487-0.696-7.892-2.089
			c-3.404-1.393-6.035-2.089-7.892-2.089c-0.929,0-2.089,0.232-3.481,0.696c-1.393,0.464-2.554,0.697-3.481,0.697
			c-2.477,0-5.416-1.702-8.82-5.106c5.88-7.118,12.069-10.677,18.568-10.677s12.534,2.167,18.104,6.499
			C638.801,162.392,640.038,165.951,641.586,169.045z M462.398,154.19l-3.714,3.25c-6.808-4.642-11.76-6.963-14.854-6.963
			c-1.547,0-5.571,3.25-12.07,9.749h-8.356c0-0.619-0.232-1.702-0.696-3.25c-0.464-1.547-0.696-2.785-0.696-3.714
			c0-9.594,8.356-14.391,25.068-14.391c1.547,0,3.868,0.542,6.963,1.625c3.095,1.083,5.416,1.625,6.963,1.625v0.929
			C461.006,141.812,461.47,145.525,462.398,154.19z M439.188,256.782c0,6.499-5.88,14.7-17.64,24.604
			c-1.548,1.238-5.726,1.856-12.534,1.856c-21.354,0-32.031-5.261-32.031-15.783c0-7.737,5.88-16.712,17.64-26.924
			c2.476-2.167,6.035-3.25,10.677-3.25c-3.095,0-1.083,1.238,6.035,3.714c5.88,0.928,11.76,1.702,17.64,2.321
			C435.784,244.867,439.188,249.354,439.188,256.782z M517.176,354.268c0,9.903-5.88,22.747-17.64,38.53
			c-10.522,14.545-20.581,25.068-30.174,31.567c-13.308,8.975-34.197,13.462-62.669,13.462c-15.474,0-26.228-1.547-32.263-4.642
			s-11.915-10.058-17.64-20.89c-5.726-10.832-8.588-19.807-8.588-26.924c0,0.928,0.774-1.548,2.321-7.428
			c6.809-25.996,19.652-47.659,38.53-64.99c16.711-15.164,40.387-22.747,71.025-22.747c11.451,0,23.83,7.66,37.137,22.979
			C510.522,328.503,517.176,342.198,517.176,354.268z M337.989,453.609c0,3.714-0.928,9.439-2.786,17.176
			c-1.856,7.737-2.939,13.462-3.249,17.176c-11.142,7.118-23.211,10.677-36.209,10.677c-6.189,0-10.6-2.476-13.23-7.428
			c-2.63-4.952-5.184-9.903-7.659-14.854c6.499-8.356,13.385-16.635,20.657-24.836c7.273-8.201,16.48-12.302,27.621-12.302
			C333.037,439.219,337.989,444.016,337.989,453.609z M440.581,550.631c0-4.023-1.238,1.083-3.714,15.319
			c-3.404,19.188-16.634,37.523-39.69,55.009c-23.056,17.486-44.642,26.229-64.758,26.229c-15.474,0-30.174-5.88-44.101-17.641
			c-14.854-12.069-22.282-25.686-22.282-40.851c0-10.831,4.952-23.829,14.855-38.994c8.975-13.308,18.569-23.829,28.781-31.566
			c6.499-4.952,18.259-10.677,35.281-17.176c17.021-6.5,29.245-9.749,36.673-9.749c6.809,0,18.724,5.571,35.745,16.712
			C432.844,518.136,440.581,532.371,440.581,550.631z M313.85,671.791c0,1.238-3.637,8.047-10.909,20.426
			s-11.683,19.342-13.23,20.89c-1.547,1.547-5.571,2.321-12.07,2.321c-25.067,0-37.602-5.881-37.602-17.641
			c0-4.643,7.737-16.866,23.211-36.673c2.785-0.31,6.809-0.619,12.069-0.929c1.238-0.929,2.631-2.476,4.178-4.643
			c9.594-2.476,13.462-3.713,11.605-3.713c4.333,0,9.207,2.243,14.623,6.73C311.142,663.049,313.85,667.458,313.85,671.791z
			 M417.37,254.461h-10.213c-3.095,0-7.737,3.714-13.926,11.141h18.104C412.882,263.126,414.894,259.413,417.37,254.461z
			 M387.195,351.946c0-3.095-1.083-5.726-3.249-7.892c-10.213,14.236-15.319,24.758-15.319,31.566c0,2.476,1.238,6.499,3.714,12.07
			c2.476,5.571,4.642,8.356,6.499,8.356c1.238,0,2.398-0.31,3.481-0.929c1.083-0.619,1.779-0.928,2.089-0.928v-5.571
			c0-1.547-0.387-4.023-1.16-7.427c-0.774-3.404-1.161-5.88-1.161-7.427c0-2.476,0.851-6.035,2.553-10.677
			S387.195,354.731,387.195,351.946z M319.42,456.859h-5.106c-5.88,5.88-11.915,13.926-18.104,24.139
			c4.023-0.309,9.749-1.238,17.176-2.785C314.933,473.571,316.944,466.453,319.42,456.859z M331.025,545.061
			c0,0.618-0.619-1.393-1.857-6.035c-8.356,0.619-16.634,5.88-24.835,15.783s-12.302,19.033-12.302,27.389
			c0,5.57,1.935,11.296,5.803,17.176c3.869,5.881,8.434,8.82,13.694,8.82c-1.547,0,0-0.464,4.642-1.393v-5.106
			c-6.499-11.142-9.749-17.795-9.749-19.961c0-1.238,4.101-7.351,12.302-18.337S331.025,546.298,331.025,545.061z M285.997,676.434
			c0-1.857-1.702-4.333-5.106-7.428l-20.425,27.389h10.677C281.045,683.706,285.997,677.052,285.997,676.434z"/>
	</g>
</g>
</svg>
