<?xml version="1.0" encoding="utf-8"?>
<!-- Generator: Adobe Illustrator 16.0.0, SVG Export Plug-In . SVG Version: 6.00 Build 0)  -->
<!DOCTYPE svg PUBLIC "-//W3C//DTD SVG 1.1//EN" "http://www.w3.org/Graphics/SVG/1.1/DTD/svg11.dtd">
<svg version="1.1"
	 id="Layer_1" image-rendering="auto" shape-rendering="auto" text-rendering="auto" color-rendering="auto" color-interpolation="auto"
	 xmlns="http://www.w3.org/2000/svg" xmlns:xlink="http://www.w3.org/1999/xlink" x="0px" y="0px" width="1000px" height="1000px"
	 viewBox="0 0 1000 1000" enable-background="new 0 0 1000 1000" xml:space="preserve">
<g>
	<g>
		<path fill="#FFFFFF" stroke="#FFFFFF" stroke-width="18" stroke-miterlimit="10" d="M948.766,527.281
			c-10.696,1.258-26.426,4.404-47.189,9.438c-12.897,9.438-34.29,19.977-64.176,31.616c-1.259,0.315-9.988,0.473-26.19,0.473
			c-16.201,0-27.291,1.101-33.268,3.303c-1.259,0.629-2.91,2.124-4.955,4.483s-4.641,3.539-7.786,3.539
			c-6.606,0-9.91-2.832-9.91-8.494c0-0.629-0.314-1.259-0.943-1.888c-0.629,1.259-0.943,2.517-0.943,3.775
			c0,4.404,1.494,11.011,4.482,19.819s4.483,15.258,4.483,19.348v75.974c0-3.775,1.729,4.404,5.19,24.538
			c2.202,12.898,3.303,27.842,3.303,44.829c0,1.888-0.943,4.798-2.831,8.73s-2.831,6.842-2.831,8.729
			c0,1.573,1.73,6.292,5.19,14.156c3.461,7.865,5.191,12.584,5.191,14.157v122.69c0,3.775,0.943,9.124,2.831,16.045
			c2.517,8.179,3.933,13.527,4.247,16.044c-23.909,14.786-43.257,22.179-58.042,22.179c0,0-18.09-1.416-54.268-4.247
			c-7.235-0.629-16.831-0.629-28.785,0c-15.101,0.944-24.695,1.416-28.785,1.416c-14.156,0-35.471-1.18-63.941-3.539
			c-28.47-2.36-49.784-3.54-63.94-3.54c-11.64,0-29.021,0.473-52.144,1.416c-23.123,0.944-40.504,1.416-52.144,1.416
			c-15.101,0-23.358-0.157-24.774-0.472c-1.416-0.315-3.067-1.337-4.955-3.067s-3.46-2.596-4.719-2.596h-91.546
			c-0.629,0-4.168-1.416-10.618-4.247c-6.449-2.831-11.718-4.404-15.808-4.719l-3.303-4.247v-35.392
			c0-1.573,0.944-4.247,2.832-8.022c1.887-3.774,2.831-6.449,2.831-8.021v-99.097c0-2.831,5.191-14.472,15.572-34.92
			c-3.146-10.382-4.719-21.707-4.719-33.976c0-8.18,1.809-18.954,5.427-32.324c3.618-13.37,5.427-21.471,5.427-24.303
			c0-41.526,0-62.289,0-62.289c0.314-4.09,2.124-11.482,5.427-22.179s4.955-18.403,4.955-23.122c0,0-0.314-7.079-0.944-21.235
			c-7.55,10.067-13.213,22.179-16.988,36.335h-17.932c-6.292,0-15.258-2.674-26.898-8.021c-11.64-5.349-20.134-8.337-25.482-8.966
			c-9.123,0.314-22.808-0.944-41.054-3.775c-2.202-0.944-15.572-7.393-40.11-19.348c-18.875-9.438-32.246-13.999-40.11-13.685
			c0-0.943-0.315-2.517-0.944-4.719c-0.629-2.202-0.944-3.933-0.944-5.191c0-0.943,2.438-5.74,7.314-14.393
			c4.876-8.65,7.629-13.92,8.258-15.808c1.258-3.775,8.337-30.044,21.235-78.806c4.719-18.246,14-42.155,27.841-71.727
			c18.561-39.01,29.415-62.761,32.561-71.255c2.517-13.527,8.494-29.415,17.932-47.661c2.517-0.314,5.978-1.573,10.382-3.775
			c1.887-4.719,5.348-11.482,10.381-20.291c7.55-4.719,17.774-11.64,30.672-20.763c34.291-28.628,68.739-48.762,103.344-60.402
			c4.719-1.573,17.303-3.775,37.751-6.606c3.46-7.865,12.269-14.628,26.426-20.292c12.269-4.719,23.437-7.078,33.504-7.078
			c5.348,0,13.528,0.157,24.539,0.472c11.01,0.315,19.19,0.472,24.538,0.472c17.617,0,33.032,1.888,46.245,5.663
			c11.955,3.46,17.617,5.191,16.988,5.191l75.974-8.966c1.259,0,5.978,1.18,14.157,3.539s12.741,3.854,13.685,4.483
			c0.943,1.888,2.202,4.247,3.775,7.078c7.55,11.011,15.101,18.089,22.65,21.235c0.629,0.315,4.719,0.472,12.269,0.472
			c15.73,0,40.269,7.865,73.615,23.594c2.202,2.202,5.662,5.348,10.381,9.438c15.101,8.179,37.437,20.605,67.009,37.279
			c8.179,5.033,15.887,13.999,23.122,26.897c9.753,17.303,16.045,27.684,18.876,31.145c2.831,6.606,6.606,15.415,11.325,26.426
			c3.146,4.719,7.55,11.955,13.213,21.707c2.517,8.809,6.292,21.864,11.325,39.167c6.921,21.078,11.797,39.167,14.629,54.267
			c2.517,5.348,5.662,13.527,9.438,24.538c0.629,11.325,3.304,27.842,8.022,49.548c0.629,1.573,3.303,6.606,8.021,15.101
			c4.09,7.235,6.135,11.482,6.135,12.741V527.281z M584.468,134.67c-6.606,0-16.044,0.472-28.313,1.416
			c-6.921,0.944-8.809,1.416-5.662,1.416c-1.888-0.314-3.461-1.258-4.719-2.831c0.629,4.404,0.943,7.865,0.943,10.381v2.359
			c0,3.146-0.472,5.505-1.416,7.078h8.022C558.986,151.344,569.367,144.737,584.468,134.67z M533.504,162.983
			c-0.943-5.663-1.416-11.325-1.416-16.988h-36.335v20.291h28.313c1.258,0,2.91-0.55,4.955-1.651S532.561,162.983,533.504,162.983z
			 M520.291,130.423h-68.424c5.978,6.292,15.572,14.314,28.785,24.066v-2.359c-0.314-8.809,1.102-14.628,4.247-17.459
			c7.55,0,18.719-0.472,33.504-1.416L520.291,130.423z M935.553,513.125v-7.079h-1.888c-4.719,0-7.864-2.831-9.438-8.494
			c-4.09-26.111-12.112-65.435-24.066-117.972c-8.809-28.628-16.517-51.908-23.122-69.839c-3.461-9.123-11.326-25.482-23.595-49.077
			c-13.527-25.481-22.65-40.582-27.37-45.301c-8.179-8.18-20.763-16.202-37.751-24.066c-20.134-9.438-33.347-16.359-39.639-20.763
			c-1.887-2.517-5.19-5.663-9.909-9.438c-10.382-2.831-25.482-7.078-45.301-12.741c-5.978-3.146-15.258-6.764-27.842-10.854
			c-4.404,0-9.596-0.629-15.572-1.888c-0.944-0.629-8.18-7.55-21.707-20.763c-8.809-8.494-17.303-12.741-25.482-12.741
			c-6.291,0-18.01,1.258-35.155,3.775c-17.146,2.517-29.965,3.775-38.459,3.775s-18.875-1.73-31.145-5.191
			c-12.269-3.46-19.19-5.19-20.763-5.19h-66.064c5.977,8.179,12.741,13.055,20.291,14.628c1.573,0.314,10.224,0.472,25.954,0.472
			c1.887,0,4.562,0.394,8.022,1.18c3.46,0.787,5.977,1.18,7.55,1.18h41.998c2.831,0,7.314,1.022,13.448,3.067
			c6.135,2.045,10.933,3.067,14.393,3.067c28.628,0,47.661-1.73,57.099-5.191c2.202-0.629,4.562-2.202,7.078-4.719
			s5.663-3.775,9.438-3.775c3.774,0,5.662,2.045,5.662,6.135c0,2.832-4.09,8.73-12.269,17.696
			c-8.18,8.966-14.157,14.707-17.932,17.224c-29.887,20.448-56.627,30.672-80.222,30.672c-16.044,0-29.414-4.089-40.11-12.269
			c-10.696-9.438-21.235-19.033-31.616-28.785c-2.832-2.202-14.472-10.539-34.92-25.01c-1.258-3.146-3.933-6.921-8.022-11.326
			c-4.404,2.202-10.696,5.82-18.875,10.854c-1.888,2.832-4.876,6.921-8.966,12.269c-3.775,0-9.595,0.315-17.46,0.944
			c-41.212,5.978-90.76,33.189-148.645,81.637c-0.314,0.314-4.719,7.235-13.212,20.763c-4.719,0.314-9.438,1.73-14.157,4.247
			c-1.573,13.842-16.988,54.425-46.245,121.748c-2.202,3.146-5.348,8.022-9.438,14.628c-10.381,23.28-22.65,63.862-36.807,121.747
			c10.696,6.921,27.37,16.201,50.02,27.842c6.606,2.517,20.606,4.404,41.998,5.662c17.617,1.259,31.617,5.506,41.998,12.741v8.494
			l-0.944,0.943h-8.022c-7.865-7.55-20.134-12.111-36.807-13.685c-13.842-0.943-27.527-1.888-41.054-2.831
			c-8.809-1.259-26.269-9.753-52.38-25.482c-1.573,3.146-4.247,7.708-8.022,13.685c10.067,2.832,20.449,6.607,31.145,11.326
			c8.809,5.033,22.021,11.01,39.639,17.932c8.809,0.314,21.864,1.572,39.167,3.774c3.461,0.63,12.427,3.461,26.898,8.494
			c11.64,3.775,20.291,5.663,25.954,5.663c4.09-6.606,9.438-16.988,16.044-31.145c0.944-12.27,1.887-24.539,2.831-36.808
			c1.573-16.673,7.079-25.01,16.516-25.01c3.146,0,6.135,1.73,8.966,5.19v91.547c0,5.033-1.573,13.213-4.719,24.538
			c-3.46,12.269-5.348,20.605-5.663,25.01c0,0,0,17.932,0,53.795c0,5.349-1.652,13.449-4.955,24.303
			c-3.304,10.854-4.955,18.954-4.955,24.302v22.179c3.775-7.864,13.527-38.537,29.257-92.018c1.259-1.888,2.674-2.832,4.247-2.832
			l1.416,0.944c0,2.517,0,5.977,0,10.381c0.314,4.72,0.472,8.18,0.472,10.382c0,19.19-5.82,45.616-17.46,79.277
			c-1.258,3.461-6.292,13.527-15.101,30.201c-6.921,12.897-10.381,22.965-10.381,30.2c0,60.088,0,90.131,0,90.131
			c-2.202,9.123-5.191,15.021-8.966,31.695c-0.314,1.572,0.314,3.303,1.888,5.19c15.1,4.09,41.998,6.921,80.693,8.494
			c6.292,0.314,17.46,1.258,33.504,2.831c14.157,1.573,25.325,2.359,33.504,2.359c3.146,0,7.236-0.472,12.27-1.416
			c6.292-1.258,10.539-2.044,12.741-2.359c4.09-0.314,12.269-0.472,24.538-0.472c16.044,0,37.909,0.944,65.592,2.831
			c31.46,2.518,53.323,3.933,65.593,4.248c0,0,42.627,0,127.882,0c2.831,0,7.157,7.472,12.977,8.415
			c5.82,0.944,10.146,1.416,12.978,1.416c4.719,0,11.168-8.888,19.347-12.663c5.978-3.146,12.112-6.135,18.404-8.966V842.975
			c0-4.404-1.652-14.235-4.955-29.493c-3.304-15.258-4.955-26.662-4.955-34.212c0-4.404,0.314-10.933,0.944-19.584
			c0.629-8.65,0.943-15.179,0.943-19.583c0-6.292-1.573-14.471-4.719-24.538c-3.146-10.066-4.719-16.516-4.719-19.348v-86.355
			c0-3.775-0.944-9.674-2.832-17.695c-1.887-8.022-2.831-13.921-2.831-17.696c0-8.179,1.18-20.37,3.539-36.571
			s3.539-28.392,3.539-36.571c0-2.202-0.314-5.663-0.943-10.381c-0.629-4.719-0.944-8.337-0.944-10.854
			c0-3.775,1.416-8.336,4.247-13.685h3.775c3.775,14.786,9.123,37.122,16.044,67.008c13.213-0.63,32.403-3.146,57.57-7.551
			c10.067-5.662,26.426-11.325,49.077-16.988l2.359,0.944v4.247c0,3.461-3.304,6.449-9.91,8.966
			c-5.033,1.888-9.909,3.618-14.628,5.19c-9.753,5.034-18.404,8.651-25.954,10.854c-10.382,0.629-25.482,2.359-45.302,5.191
			c-0.629,0-4.09,1.887-10.381,5.662v8.022c15.1,0.629,37.279-1.416,66.536-6.135c0.314-0.314,16.516-8.022,48.604-23.122
			C907.869,518.63,924.228,513.439,935.553,513.125z M814.749,285.674c0,11.011-2.988,27.527-8.966,49.548h-12.269
			c-1.259-1.258-1.888-3.933-1.888-8.022c0-8.494,4.404-27.055,13.213-55.683h8.021C814.12,275.922,814.749,280.641,814.749,285.674
			z M788.323,322.954c0,35.863-8.336,72.042-25.01,108.534h-12.741v-8.022c0-1.573,2.202-9.517,6.606-23.831
			s6.921-22.886,7.551-25.718c2.517-18.561,6.606-46.402,12.269-83.524h11.325V322.954z M920.924,511.236
			c-6.291,3.146-10.381,4.72-12.269,4.72c-2.202,0-5.427-0.472-9.674-1.416s-7.472-1.415-9.674-1.415
			c-3.775,0-6.606,0.943-8.494,2.831v-8.494c7.235-5.978,18.089-8.966,32.561-8.966c0.629,0,3.146,1.102,7.55,3.303V511.236z
			 M644.397,146.939c0,1.573-7.55,11.325-22.65,29.257c-3.775,2.202-8.966,5.348-15.572,9.438
			c-2.202,2.831-6.135,6.449-11.797,10.853c-27.685,13.842-51.437,20.763-71.256,20.763c-36.807,0-85.254-26.897-145.341-80.693
			v-9.438h12.741c3.146,4.089,8.494,9.752,16.044,16.988c51.279,38.066,87.457,57.099,108.535,57.099
			c20.134,0,38.065-2.517,53.795-7.55c4.09-2.832,9.438-6.449,16.044-10.854c5.349-2.831,12.584-7.393,21.707-13.685
			c1.259-2.202,3.304-5.505,6.135-9.91c1.888-2.832,10.539-10.539,25.954-23.123h5.662V146.939z M733.112,680.173
			c-1.572,4.09-3.46,6.135-5.662,6.135c0,0-2.674-0.63-8.022-1.888c-2.202-3.461-3.775-7.393-4.719-11.797
			c-1.888-11.011-5.978-40.111-12.27-87.3c-3.774-28.313-5.662-42.47-5.662-42.47c0-30.201,0.943-46.402,2.831-48.604
			L733.112,680.173z M282.932,411.197c0.314,1.887-0.787,5.191-3.304,9.91h-8.022c-7.865-36.808-11.797-57.099-11.797-60.874
			c0-5.348,1.102-9.752,3.304-13.212h6.606L282.932,411.197z M257.921,435.735h-8.022c-8.809-22.965-17.774-46.088-26.898-69.368
			c-12.898-31.773-24.381-51.908-34.448-60.401v-9.91h13.685c3.146,3.146,7.55,8.18,13.213,15.101
			c5.663,9.438,13.842,26.426,24.539,50.964c11.955,27.055,17.932,43.571,17.932,49.548V435.735z"/>
	</g>
</g>
</svg>
